<?xml version="1.0" encoding="UTF-8"?><svg id="Layer_1" xmlns="http://www.w3.org/2000/svg" viewBox="0 0 880.38 374.71"><text transform="translate(347.77 272.22)" fill="#231f20" font-family="InterTight-Bold, &apos;Inter Tight&apos;" font-size="224.21" font-variation-settings="&apos;wght&apos; 700" font-weight="700"><tspan x="0" y="0">Heka</tspan></text><path d="M211.52,2.1s-22.14,42.27-30.19,111.2-1.01,87.55-31.2,126.8c0,0,32.2-18.11,73.46-58.37,0,0,24.66-20.13,54.34-15.6,0,0,31.2-1.01,34.22,39.25,0,0,0-59.38-30.69-81.52,0,0-24.56-23.55-43.78,19.62l-6.54,17.11s-21.47-49.65-19.62-158.5Z" fill="#231f20" stroke="#231f20" stroke-miterlimit="10"/><path d="M176.88,94.89s-7.79,107.29-51.35,132.5S3.11,215.47,3.11,215.47c0,0,118.42,15.58,173.77-120.58Z" fill="#231f20" stroke="#231f20" stroke-miterlimit="10"/><path d="M45.36,240.11s79.11,36.79,88.6,97.81c0,0,.9-55.15,60.57-111.2,0,0-47.92,39.44-149.17,13.39Z" fill="#231f20" stroke="#231f20" stroke-miterlimit="10"/><polygon points="548.81 168.98 606.45 168.98 606.45 205.19 540.71 205.19 540.71 172.32 548.81 168.98" fill="#231f20" stroke="#231f20" stroke-miterlimit="10"/><path d="M123.56,371.37s34.35-94.93,87.69-153.69c0,0,77.48-73.68,100.9-8.59,0,0-97.46,32.89-188.59,162.28Z" fill="#231f20" stroke="#231f20" stroke-miterlimit="10"/><path d="M584,164.47s-4.12,4.26-7.5,12.19-3.18,10.4-8.16,14.01c0,0,4.48-1.03,10.82-4.38,0,0,3.65-1.53,7.04.05,0,0,3.76.97,2.72,5.88,0,0,2.08-7.07-.82-10.79,0,0-2.11-3.67-5.92.8l-1.38,1.81s-.83-6.67,3.2-19.57Z" fill="#fff" stroke="#231f20" stroke-miterlimit="10"/><path d="M576.62,174.31s-4.68,12.51-10.77,13.99-14.21-5.71-14.21-5.71c0,0,13.61,6.01,24.98-8.27Z" fill="#fff" stroke="#231f20" stroke-miterlimit="10"/><path d="M555.83,187s8.17,7.16,7.17,14.76c0,0,2.04-6.54,11.13-11.12,0,0-7.1,3.02-18.3-3.64Z" fill="#fff" stroke="#231f20" stroke-miterlimit="10"/><path d="M560.58,205.38s7.42-10.11,15.85-15.24c0,0,11.84-6.06,12.36,2.51,0,0-12.8.5-28.21,12.72Z" fill="#fff" stroke="#231f20" stroke-miterlimit="10"/><polygon points="846.14 205.19 846.14 247.28 808.41 261.52 777.09 252.27 784.92 218.1 846.14 205.19" fill="#231f20" stroke="#231f20" stroke-miterlimit="10"/><path d="M811.79,212.9s-4.12,4.26-7.5,12.19-3.18,10.4-8.16,14.01c0,0,4.48-1.03,10.82-4.38,0,0,3.65-1.53,7.04.05,0,0,3.76.97,2.72,5.88,0,0,2.08-7.07-.82-10.79,0,0-2.11-3.67-5.92.8l-1.38,1.81s-.83-6.67,3.2-19.57Z" fill="#fff" stroke="#231f20" stroke-miterlimit="10"/><path d="M804.41,222.74s-4.68,12.51-10.77,13.99-14.21-5.71-14.21-5.71c0,0,13.61,6.01,24.98-8.27Z" fill="#fff" stroke="#231f20" stroke-miterlimit="10"/><path d="M783.62,235.43s8.17,7.16,7.17,14.76c0,0,2.04-6.54,11.13-11.12,0,0-7.1,3.02-18.3-3.64Z" fill="#fff" stroke="#231f20" stroke-miterlimit="10"/><path d="M788.37,253.81s7.42-10.11,15.85-15.24c0,0,11.84-6.06,12.36,2.51,0,0-12.8.5-28.21,12.72Z" fill="#fff" stroke="#231f20" stroke-miterlimit="10"/></svg>